# xmcd
#
# Track frame offsets: 
#        150
#        9575
#        30506
#        41399
#        63008
#        83746
#        100804
#        133521
#        160402
#        190625
#        202015
#        231519
#        259044
#        287823
#        299153
#
# Disc length: 4320 seconds
#
# Revision: 0
# Processed by: cddbd v1.5.2PL0 Copyright (c) Steve Scherf et al.
# Submitted via: ExactAudioCopy v0.99pb4
#
DISCID=d110de0f
DTITLE=Volker Präkelt - Die abenteuerliche Welt der Piraten
DYEAR=2008
DGENRE=Other
TTITLE0=Ansage
TTITLE1=Zum Enterhaken
TTITLE2=Die Seekiste
TTITLE3=Piratenjäger und Piratin
TTITLE4=Totenkopf mit Ohrring
TTITLE5=Kaptän Lubbers Plan
TTITLE6=Entführung in Port Royal
TTITLE7=Ein Schiffbrüchiger
TTITLE8=Das weiß nur der Teufel
TTITLE9=Das Feuerwerk
TTITLE10=Die Schatzkiste
TTITLE11=Madagaskar
TTITLE12=Die Seeschlacht
TTITLE13=Ein Heim für Piraten
TTITLE14=Warwicks wundersamer Buchladen
EXTD=
EXTT0=
EXTT1=
EXTT2=
EXTT3=
EXTT4=
EXTT5=
EXTT6=
EXTT7=
EXTT8=
EXTT9=
EXTT10=
EXTT11=
EXTT12=
EXTT13=
EXTT14=
PLAYORDER=
